<svg width="202" height="202" viewBox="0 0 202 202" fill="none" xmlns="http://www.w3.org/2000/svg">
<path d="M179.556 28.0557H22.4444C16.4918 28.0557 10.783 30.4203 6.57383 34.6295C2.36468 38.8386 0 44.5475 0 50.5001L0 151.5C0 157.453 2.36468 163.162 6.57383 167.371C10.783 171.58 16.4918 173.945 22.4444 173.945H179.556C185.508 173.945 191.217 171.58 195.426 167.371C199.635 163.162 202 157.453 202 151.5V50.5001C202 44.5475 199.635 38.8386 195.426 34.6295C191.217 30.4203 185.508 28.0557 179.556 28.0557Z" fill="#C7D5C6"/>
<path d="M117.833 28.0557H84.1667V84.1668H0V117.833H84.1667V173.945H117.833V117.833H202V84.1668H117.833V28.0557Z" fill="#693F22"/>
</svg>
