<svg width="27" height="26" viewBox="0 0 27 26" fill="none" xmlns="http://www.w3.org/2000/svg">
<path d="M4.78579 10.477C4.77233 10.4323 4.80327 10.3685 4.8786 10.2856C4.95931 10.1968 5.01985 10.16 5.06021 10.175L9.21261 11.5655C9.24113 11.5698 9.24786 11.5921 9.23279 11.6325C9.21773 11.6729 9.18867 11.7167 9.14563 11.7641C9.03801 11.8825 8.95272 11.9347 8.88976 11.9207L5.03684 10.5754L5.19019 10.4067L6.88807 14.1229C6.91337 14.1784 6.86952 14.2682 6.75652 14.3925C6.6489 14.5109 6.58245 14.5424 6.55715 14.487L4.78579 10.477Z" fill="white"/>
<path d="M17.6541 6.99034C17.6753 6.94882 17.7418 6.92431 17.8536 6.91682C17.9733 6.90879 18.0425 6.9242 18.0611 6.96304L20.0893 10.844C20.1069 10.8669 20.0963 10.8877 20.0574 10.9063C20.0186 10.925 19.9672 10.9364 19.9034 10.9407C19.7437 10.9514 19.6461 10.9299 19.6104 10.8762L17.7667 7.23535L17.9942 7.22009L16.6411 11.0753C16.6209 11.1327 16.527 11.1671 16.3593 11.1783C16.1997 11.189 16.13 11.1657 16.1502 11.1082L17.6541 6.99034Z" fill="white"/>
<path d="M11.998 16.5352C12.2324 16.5352 12.4001 16.5596 12.501 16.6084C12.6051 16.654 12.6572 16.7321 12.6572 16.8428V17.7412C12.6572 17.8519 12.6051 17.9316 12.501 17.9805C12.4001 18.026 12.2324 18.0488 11.998 18.0488C11.7637 18.0488 11.5944 18.026 11.4902 17.9805C11.3893 17.9316 11.3389 17.8519 11.3389 17.7412V16.8428C11.3389 16.7321 11.3893 16.654 11.4902 16.6084C11.5944 16.5596 11.7637 16.5352 11.998 16.5352Z" fill="white"/>
<path d="M16.998 15.5352C17.2324 15.5352 17.4001 15.5596 17.501 15.6084C17.6051 15.654 17.6572 15.7321 17.6572 15.8428V16.7412C17.6572 16.8519 17.6051 16.9316 17.501 16.9805C17.4001 17.026 17.2324 17.0488 16.998 17.0488C16.7637 17.0488 16.5944 17.026 16.4902 16.9805C16.3893 16.9316 16.3389 16.8519 16.3389 16.7412V15.8428C16.3389 15.7321 16.3893 15.654 16.4902 15.6084C16.5944 15.5596 16.7637 15.5352 16.998 15.5352Z" fill="white"/>
<path d="M15.5302 11.5338L17.4104 11.5878C17.4077 11.658 17.3803 11.7625 17.3281 11.9013C17.2759 12.04 17.2323 12.1087 17.1971 12.1074L10.3993 11.8486L10.412 11.5149L15.5302 11.5338Z" fill="white"/>
<path d="M20.3959 12.8765C20.4279 12.8959 20.4516 12.9196 20.4669 12.9479C20.4836 12.9769 20.4901 13.0055 20.4864 13.0337L19.8207 17.3161C19.8173 17.3311 19.8123 17.3442 19.8056 17.3554C19.7862 17.3875 19.7521 17.403 19.7033 17.4021C19.6545 17.4011 19.6022 17.3839 19.5464 17.3503C19.5143 17.3309 19.49 17.3067 19.4733 17.2777C19.458 17.2495 19.4522 17.2212 19.4559 17.1931L20.1215 12.9107C20.1249 12.8957 20.13 12.8825 20.1367 12.8714C20.156 12.8393 20.1901 12.8238 20.239 12.8247C20.2878 12.8256 20.3401 12.8429 20.3959 12.8765Z" fill="white"/>
<path d="M20.3702 20.5379C20.3761 20.5524 20.3723 20.5658 20.3591 20.5781C20.3463 20.5917 20.3145 20.6087 20.2638 20.6291C20.2131 20.6495 20.1784 20.6593 20.1598 20.6584C20.1416 20.6586 20.1296 20.6515 20.1238 20.637L19.2211 18.3939C19.2152 18.3794 19.219 18.366 19.2322 18.3536C19.245 18.34 19.2768 18.3231 19.3275 18.3026C19.3782 18.2822 19.4129 18.2725 19.4315 18.2734C19.4497 18.2731 19.4617 18.2802 19.4675 18.2947L20.3702 20.5379Z" fill="white"/>
<path d="M13.3313 22.2317C13.3448 22.2397 13.35 22.2526 13.347 22.2705C13.3451 22.289 13.3302 22.3218 13.3024 22.3689C13.2746 22.416 13.253 22.4448 13.2376 22.4554C13.2234 22.4667 13.2096 22.4683 13.1961 22.4604L11.1148 21.2296C11.1014 21.2217 11.0962 21.2087 11.0992 21.1909C11.1011 21.1723 11.1159 21.1395 11.1438 21.0924C11.1716 21.0454 11.1932 21.0165 11.2085 21.0059C11.2228 20.9947 11.2366 20.993 11.2501 21.001L13.3313 22.2317Z" fill="white"/>
<path d="M19.3665 22.9324C19.3552 22.9601 19.3393 22.9817 19.3189 22.9973C19.298 23.0141 19.2762 23.0227 19.2534 23.0233L15.7864 23.0245C15.7741 23.0236 15.7631 23.0213 15.7535 23.0173C15.7257 23.006 15.7092 22.981 15.704 22.9422C15.6987 22.9035 15.7059 22.86 15.7256 22.8118C15.7369 22.7841 15.7531 22.7619 15.774 22.7451C15.7944 22.7295 15.816 22.7215 15.8387 22.7209L19.3057 22.7197C19.3181 22.7205 19.329 22.7229 19.3387 22.7269C19.3664 22.7382 19.3829 22.7632 19.3882 22.8019C19.3935 22.8407 19.3862 22.8841 19.3665 22.9324Z" fill="white"/>
<path d="M6.37086 16.8063C6.38032 16.7838 6.39267 16.7664 6.40793 16.7542C6.43233 16.7347 6.46192 16.7248 6.49669 16.7244C6.53299 16.7229 6.57051 16.7292 6.60924 16.7432C6.67055 16.7667 6.71646 16.7975 6.74696 16.8356C6.77136 16.8662 6.77913 16.8962 6.77029 16.9258C6.64551 17.3107 6.60735 17.7164 6.65583 18.1428C6.7043 18.5693 6.88409 18.9769 7.19519 19.3659C7.5063 19.7548 7.86255 20.0188 8.26396 20.1579C8.66689 20.2958 9.07059 20.3456 9.47506 20.3072C9.50586 20.305 9.53347 20.3192 9.55787 20.3497C9.58837 20.3879 9.60835 20.4394 9.6178 20.5044C9.62298 20.5453 9.62084 20.5832 9.61138 20.6183C9.60345 20.6522 9.58728 20.6789 9.56288 20.6984C9.54763 20.7106 9.52795 20.7188 9.50386 20.7231C9.22872 20.7606 8.93437 20.7522 8.62081 20.6979C8.30999 20.6439 7.99887 20.5301 7.68744 20.3565C7.37755 20.1817 7.1006 19.9418 6.8566 19.6367C6.61259 19.3317 6.43875 19.008 6.33506 18.6658C6.2329 18.3223 6.18976 17.9917 6.20564 17.6738C6.2203 17.3545 6.27537 17.0653 6.37086 16.8063Z" fill="white"/>
</svg>
