<svg width="16" height="16" viewBox="0 0 16 16" fill="none" xmlns="http://www.w3.org/2000/svg">
<path d="M2 8L0 3.5L4.5 5L2 8Z" fill="white"/>
<path d="M12.5 4.5H5.5L5 6.5H11.5L12.5 4.5Z" fill="white"/>
<path d="M15 4H11.5L13 0L15 4Z" fill="white"/>
<path d="M14 7L15.5 6L14.5 10.5L13 11L14 7Z" fill="white"/>
<path d="M13 12C13.3333 12 14.1 11.9 14.5 11.5L15 14L12.5 13.5L13 12Z" fill="white"/>
<path d="M15 14.5L14.5 16H10L12.5 14L15 14.5Z" fill="white"/>
<path d="M11.5 14L8.5 15.5L6 14L7 13L11.5 14Z" fill="white"/>
<path d="M5.5 12.5L4.5 13.5C3.83333 13.5 2.4 13.3 2 12.5C1.6 11.7 1.5 10.5 1.5 10L3.5 9C3.33333 9.5 3.1 10.7 3.5 11.5C3.9 12.3 5 12.5 5.5 12.5Z" fill="white"/>
<path d="M6.5 9C5.3 9.4 5.66667 10.5 6 11L9 10.5C8.33333 9.83333 7.7 8.6 6.5 9Z" fill="white"/>
<path d="M12 8C10.8 7.6 11 9 11 10L13 9C13.1667 8.83333 13.2 8.4 12 8Z" fill="white"/>
</svg>
